<svg width="25" height="25" viewBox="0 0 25 25" fill="none" xmlns="http://www.w3.org/2000/svg">
<path d="M9.43051 12.5532C9.43051 10.8435 10.8161 9.4571 12.5259 9.4571C14.2356 9.4571 15.622 10.8435 15.622 12.5532C15.622 14.2629 14.2356 15.6493 12.5259 15.6493C10.8161 15.6493 9.43051 14.2629 9.43051 12.5532V12.5532ZM7.75681 12.5532C7.75681 15.1872 9.89192 17.3223 12.5259 17.3223C15.1598 17.3223 17.2949 15.1872 17.2949 12.5532C17.2949 9.91925 15.1598 7.78415 12.5259 7.78415C9.89192 7.78415 7.75688 9.9191 7.75688 12.5532H7.75681ZM16.3693 7.59505C16.3692 7.81548 16.4345 8.03098 16.5569 8.21431C16.6793 8.39764 16.8533 8.54056 17.0569 8.625C17.2605 8.70943 17.4846 8.73159 17.7008 8.68868C17.917 8.64576 18.1157 8.53969 18.2716 8.38389C18.4275 8.22808 18.5337 8.02954 18.5768 7.81336C18.6199 7.59719 18.5979 7.37309 18.5137 7.1694C18.4294 6.96572 18.2866 6.7916 18.1034 6.66906C17.9201 6.54653 17.7047 6.48107 17.4843 6.48099H17.4838C17.1884 6.48112 16.905 6.59853 16.6961 6.80741C16.4871 7.0163 16.3696 7.29958 16.3693 7.59505V7.59505ZM8.77369 20.1132C7.86819 20.0719 7.37602 19.9211 7.04895 19.7937C6.61533 19.6248 6.30594 19.4238 5.98065 19.0989C5.65536 18.7741 5.454 18.465 5.28594 18.0314C5.15844 17.7045 5.00761 17.2122 4.96644 16.3067C4.92142 15.3277 4.91243 15.0336 4.91243 12.5534C4.91243 10.0731 4.92216 9.77986 4.96644 8.80006C5.00768 7.89456 5.15962 7.40321 5.28594 7.07532C5.45475 6.6417 5.65581 6.33231 5.98065 6.00702C6.30549 5.68173 6.61458 5.48038 7.04895 5.31231C7.37587 5.18481 7.86819 5.03398 8.77369 4.99282C9.75268 4.94779 10.0468 4.9388 12.5259 4.9388C15.005 4.9388 15.2994 4.94839 16.2792 4.99297C17.1847 5.0342 17.676 5.18615 18.0039 5.31246C18.4375 5.48053 18.7469 5.68233 19.0722 6.00717C19.3975 6.33201 19.5981 6.64185 19.7669 7.07547C19.8944 7.40239 20.0453 7.8947 20.0864 8.80021C20.1315 9.78001 20.1404 10.0733 20.1404 12.5535C20.1404 15.0337 20.1315 15.327 20.0864 16.3068C20.0452 17.2123 19.8936 17.7045 19.7669 18.0315C19.5981 18.4652 19.3971 18.7746 19.0722 19.0991C18.7474 19.4236 18.4375 19.625 18.0039 19.7938C17.677 19.9213 17.1847 20.0721 16.2792 20.1133C15.3002 20.1583 15.0061 20.1673 12.5259 20.1673C10.0456 20.1673 9.75238 20.1583 8.77369 20.1133V20.1132ZM8.69679 3.32187C7.70807 3.3669 7.03245 3.52367 6.44243 3.75326C5.83175 3.99035 5.3141 4.30843 4.79719 4.82453C4.28028 5.34062 3.96301 5.85835 3.72592 6.46977C3.49633 7.06016 3.33955 7.7354 3.29453 8.72412C3.24876 9.7144 3.23828 10.031 3.23828 12.5532C3.23828 15.0754 3.24876 15.392 3.29453 16.3823C3.33955 17.3711 3.49633 18.0463 3.72592 18.6366C3.96301 19.2473 4.28035 19.766 4.79719 20.2819C5.31402 20.7978 5.83101 21.1154 6.44243 21.3532C7.03356 21.5827 7.70807 21.7395 8.69679 21.7845C9.68759 21.8296 10.0037 21.8408 12.5259 21.8408C15.0481 21.8408 15.3647 21.8303 16.355 21.7845C17.3438 21.7395 18.0189 21.5827 18.6093 21.3532C19.22 21.1154 19.7377 20.798 20.2546 20.2819C20.7715 19.7658 21.0881 19.2473 21.3258 18.6366C21.5554 18.0463 21.7129 17.371 21.7572 16.3823C21.8023 15.3913 21.8127 15.0754 21.8127 12.5532C21.8127 10.031 21.8023 9.7144 21.7572 8.72412C21.7122 7.73533 21.5554 7.05979 21.3258 6.46977C21.0881 5.85909 20.7707 5.34144 20.2546 4.82453C19.7385 4.30762 19.22 3.99035 18.6101 3.75326C18.0189 3.52367 17.3437 3.36615 16.3557 3.32187C15.3653 3.27662 15.0488 3.26562 12.527 3.26562C10.0052 3.26562 9.68796 3.2761 8.69716 3.32187" fill="#F8F8F8"/>
</svg>
