<svg width="25" height="25" viewBox="0 0 25 25" fill="none" xmlns="http://www.w3.org/2000/svg">
<path fill-rule="evenodd" clip-rule="evenodd" d="M20.6014 16.868C20.0058 16.3885 19.3693 15.9582 18.7428 15.5185C17.4933 14.6409 16.3504 14.5727 15.418 15.9846C14.8945 16.7773 14.1615 16.812 13.3951 16.4643C11.2823 15.5062 9.65082 14.0302 8.69516 11.8827C8.2724 10.9326 8.27797 10.0808 9.26708 9.40883C9.79076 9.05346 10.3183 8.63295 10.2762 7.85644C10.2211 6.84394 7.76274 3.46029 6.79194 3.10316C6.39023 2.95536 5.99018 2.96498 5.58149 3.10233C3.30512 3.86786 2.36225 5.73998 3.26523 7.95668C5.95908 14.5701 10.6998 19.1741 17.2257 21.9841C17.5977 22.1441 18.0111 22.2081 18.2203 22.2655C19.7061 22.2805 21.4466 20.849 21.9492 19.4284C22.4331 18.0617 21.4104 17.5192 20.6014 16.868ZM13.2843 3.78119C18.0551 4.51483 20.2553 6.78339 20.8629 11.5886C20.9192 12.0324 20.7539 12.7003 21.3871 12.7126C22.0489 12.7252 21.8895 12.0672 21.895 11.6229C21.951 7.09735 18.005 2.90194 13.4222 2.74725C13.0764 2.79701 12.361 2.50883 12.3164 3.28378C12.2867 3.80624 12.889 3.7204 13.2843 3.78119V3.78119Z" fill="#F8F8F8"/>
<path fill-rule="evenodd" clip-rule="evenodd" d="M14.2175 5.09862C13.7586 5.04335 13.1528 4.82714 13.0455 5.46386C12.9336 6.13217 13.6088 6.0643 14.0426 6.16142C16.9892 6.81996 18.0152 7.89243 18.5003 10.8153C18.5712 11.2414 18.4304 11.9046 19.1546 11.7947C19.6913 11.713 19.4974 11.1445 19.5423 10.8124C19.5661 8.00624 17.1615 5.45214 14.2175 5.09862V5.09862Z" fill="#F8F8F8"/>
<path fill-rule="evenodd" clip-rule="evenodd" d="M14.488 7.39356C14.1817 7.40113 13.881 7.43428 13.7684 7.76163C13.5993 8.25089 13.9551 8.36754 14.3171 8.42569C15.5258 8.61973 16.162 9.33248 16.2827 10.5378C16.3153 10.865 16.523 11.1301 16.839 11.0928C17.2769 11.0405 17.3165 10.6507 17.3031 10.2806C17.3247 8.92637 15.7941 7.36114 14.488 7.39356V7.39356Z" fill="#F8F8F8"/>
</svg>
