<svg width="32" height="32" viewBox="0 0 32 32" fill="none" xmlns="http://www.w3.org/2000/svg">
<path d="M28.6667 11.3173V22.5C28.6667 24.4333 27.1 26 25.1667 26H6.83333C5.90507 26 5.01483 25.6313 4.35845 24.9749C3.70208 24.3185 3.33333 23.4283 3.33333 22.5V11.3173L15.5987 18.064C15.8487 18.2013 16.152 18.2013 16.4013 18.064L28.6667 11.3167V11.3173ZM25.1667 6C26.0803 6.00008 26.9577 6.35744 27.6114 6.99572C28.2652 7.634 28.6434 8.50261 28.6653 9.416L16 16.3827L3.33466 9.41533L3.336 9.35533C3.37333 8.45284 3.75813 7.59972 4.40993 6.97438C5.06174 6.34905 5.93006 5.99992 6.83333 6H25.1667Z" fill="#79CFD5"/>
</svg>
